<svg width="100" height="64" viewBox="0 0 100 64" fill="none" xmlns="http://www.w3.org/2000/svg">
<g clip-path="url(#clip0_726_2037)">
<path fill-rule="evenodd" clip-rule="evenodd" d="M11.5391 28.4045C5.42958 25.848 2.16358 21.5515 4.23793 18.8129C6.31859 16.0742 12.9515 15.9297 19.061 18.4925C25.1706 21.049 28.4366 25.3455 26.3622 28.0841C24.2816 30.8228 17.6487 30.9673 11.5391 28.4045ZM29.5841 29.8743C30.5551 28.4799 30.6181 26.8216 29.9372 25.1193L43.0138 25.0817C44.1991 26.9975 46.4059 28.951 49.344 30.5527L38.5561 41.878C35.2208 40.3077 31.7782 39.4974 28.6383 39.4094L23.8465 32.8391C26.4379 32.4371 28.4933 31.4384 29.5841 29.8743ZM63.7762 33.4987C65.4722 33.1532 66.8152 32.4622 67.597 31.4195C68.5302 30.1696 68.505 28.5992 67.6979 26.9661L78.0571 26.9786C79.2109 28.6118 81.0835 30.2763 83.5046 31.6834L77.4455 42.0853C74.8163 40.9044 72.206 40.2009 69.8605 39.9747L63.7762 33.4924V33.4987ZM80.4593 43.6493L86.676 33.2411C91.8398 35.3328 97.0099 35.3768 98.9582 33.1281C101.228 30.5087 98.2709 25.7789 92.3505 22.5628C89.3682 20.9422 86.2094 20.0126 83.5172 19.8242L79.6648 15.8795C80.1125 15.6471 80.4845 15.3581 80.7682 15.0127C82.7228 12.6383 79.8288 8.4298 74.3119 5.61575C68.795 2.80171 62.7359 2.44995 60.7813 4.8243C60.176 5.55922 60.0373 6.4763 60.2958 7.46247L50.1195 7.45619C48.9594 5.42731 46.3996 3.37959 42.9066 1.95373C36.8096 -0.53997 30.1894 -0.219621 28.1213 2.6698C26.5892 4.80546 27.9637 7.74513 31.2423 10.1383L21.5137 17.4247C21.0849 17.2174 20.6499 17.0164 20.1959 16.8217C12.3273 13.4674 3.77136 13.8632 1.09804 17.7136C-1.5816 21.5641 2.63015 27.4058 10.4988 30.76C13.727 32.1356 17.0749 32.8831 20.0824 33.015L24.7103 39.6984C21.5767 40.2951 19.0673 41.7775 17.7937 44.0827C14.8808 49.3277 19.4645 56.8527 28.0268 60.8791C36.589 64.9054 45.8952 63.9193 48.8081 58.6743C49.943 56.6266 49.943 54.2334 49.0035 51.8339L64.104 51.7648C65.7749 53.7309 68.0825 55.6467 70.863 57.2485C78.3912 61.5826 86.5688 62.0034 89.1287 58.1969C91.6507 54.4407 87.7794 47.9835 80.4719 43.6493H80.4593ZM28.6699 22.9334C27.7367 21.7023 26.4505 20.4963 24.8679 19.3908L34.6218 12.0981C34.874 12.2112 35.1325 12.3242 35.391 12.431C38.2346 13.5931 41.1853 14.1458 43.7452 14.1081L47.1688 17.7513C45.1764 18.0403 43.6001 18.7689 42.73 19.9372C42.0491 20.848 41.8789 21.9284 42.15 23.0779L28.6699 22.9397V22.9334ZM58.8646 19.7614C55.8886 18.4611 52.8244 17.745 50.1447 17.6194L46.4311 13.8129C48.1082 13.4486 49.4323 12.7451 50.1763 11.7087C50.6807 11.0052 50.8698 10.2074 50.7752 9.372H61.21C62.1369 10.7162 63.6438 12.0918 65.5983 13.3041L58.8646 19.7614ZM51.8534 29.4032C46.5257 26.9786 43.6695 23.2161 45.4853 20.9925C47.3012 18.7689 53.0892 18.9322 58.4169 21.3568C63.7447 23.7814 66.6008 27.5439 64.785 29.7675C62.9691 31.9911 57.1811 31.8278 51.8534 29.4032ZM66.3865 25.0126C65.3209 23.7563 63.8455 22.5189 62.036 21.4133L68.5743 14.8619C71.6575 16.1935 74.7847 16.7714 77.187 16.5453L80.3836 19.9938C79.1541 20.245 78.1642 20.735 77.5211 21.4762C76.6952 22.4309 76.5628 23.6621 77.0104 25L66.3865 25.0188V25.0126ZM47.1688 48.6242C45.8952 46.9156 44.1739 45.2888 42.0806 43.8755L52.9379 32.1859C55.3905 33.0967 57.8558 33.6054 60.0625 33.7248L66.1532 40.0752C64.2365 40.4081 62.7233 41.2122 61.8532 42.5061C60.7372 44.1644 60.8696 46.3503 61.9982 48.6493L47.1688 48.6242ZM21.2173 45.3641C23.4808 41.6205 30.7001 41.074 37.3456 44.1456C43.9911 47.2109 47.5471 52.7322 45.2899 56.4696C43.0264 60.2133 35.8071 60.7597 29.1617 57.6881C22.5162 54.6228 18.9601 49.1015 21.2173 45.3641ZM64.8796 43.976C66.8656 41.2813 73.2148 41.7901 79.0595 45.1003C84.9043 48.4169 88.0253 53.2849 86.0392 55.9796C84.0531 58.6743 77.704 58.1655 71.8592 54.8553C66.0145 51.5387 62.8935 46.6707 64.8796 43.976ZM85.0682 30.3768C80.4719 27.9145 78.1642 24.4221 79.9107 22.5754C81.6572 20.7287 86.8021 21.2312 91.3985 23.6998C95.9948 26.162 98.3025 29.6545 96.556 31.5012C94.8095 33.3479 89.6646 32.8454 85.0682 30.3768ZM68.0132 12.7262C63.7257 10.5717 61.4812 7.46875 62.9944 5.79163C64.5076 4.11451 69.2048 4.49767 73.4922 6.65218C77.7796 8.80668 80.0242 11.9097 78.511 13.5868C76.9978 15.2639 72.3006 14.8807 68.0132 12.7262ZM36.2044 10.6597C31.4756 8.75643 28.941 5.54666 30.5551 3.49266C32.1628 1.43866 37.3014 1.31303 42.0365 3.21C46.7653 5.11325 49.2999 8.32302 47.6858 10.377C46.078 12.431 40.9394 12.5566 36.2044 10.6597Z" fill="white" stroke="#FEFEFE" stroke-width="0.751776" stroke-miterlimit="22.9256"/>
</g>
<defs>
<clipPath id="clip0_726_2037">
<rect width="100" height="63.6364" fill="white"/>
</clipPath>
</defs>
</svg>
